<?xml version="1.0" encoding="UTF-8"?>
<svg width="56px" height="56px" viewBox="0 0 56 56" version="1.1" xmlns="http://www.w3.org/2000/svg" xmlns:xlink="http://www.w3.org/1999/xlink">
    <title>我的档案</title>
    <g id="确认版" stroke="none" stroke-width="1" fill="none" fill-rule="evenodd">
        <g id="我的主页" transform="translate(-99, -605)">
            <g id="我的档案" transform="translate(99, 605)">
                <path d="M48.4665434,44 L8.5202751,44 C6.95908948,43.7238223 5.85320604,41.9612524 6.0172599,40.010665 L6.0172599,7.98933481 C5.8469354,6.03651967 6.95582783,4.26915399 8.5202751,4 L48.480449,4 C50.0416345,4.27617766 51.147518,6.03874755 50.9834642,7.98933481 L50.9834642,39.9847229 C51.1502099,41.9475442 50.0377216,43.7223115 48.4665434,44 L48.4665434,44 Z" id="路径" fill="#F7D528" fill-rule="nonzero" opacity="0.581798735"></path>
                <path d="M45.4931418,32.2967636 L45.4931418,36.9012392 C45.4918816,38.1691032 44.4496564,39.1966 43.1636186,39.1978425 L12.8135206,39.1978425 C11.5274829,39.1966 10.4852577,38.1691032 10.4839974,36.9012392 L10.4839974,32.2967636 C10.4827372,31.0288996 9.44051195,30.0014027 8.15447415,30 L2.32495098,30 C1.04069914,30.0038836 0.00125355939,31.0306554 0,32.2967636 L0,50.7033967 C0.00126024112,51.9712607 1.04348542,52.9987576 2.32952318,53 L53.6704768,53 C54.9565146,52.9987576 55.9987398,51.9712607 56,50.7033967 L56,32.2967636 C55.9987398,31.0288996 54.9565146,30.0014028 53.6704768,30 L47.8409537,30 C47.219223,29.9929082 46.6205508,30.2319574 46.1791743,30.6637069 C45.7377978,31.0954564 45.4906479,31.683781 45.4931418,32.2967636 L45.4931418,32.2967636 Z" id="路径" fill="#EBBC01" fill-rule="nonzero"></path>
                <path d="M13.0833333,19 L23.9166667,19 C24.6388889,19 25,19.3333333 25,20 L25,20 C25,20.6666667 24.6388889,21 23.9166667,21 L13.0833333,21 C12.3611111,21 12,20.6666667 12,20 L12,20 C12,19.3333333 12.3611111,19 13.0833333,19 Z" id="路径" fill="#F5F2FF" fill-rule="nonzero"></path>
                <rect id="矩形" x="0" y="0" width="56" height="56"></rect>
            </g>
        </g>
    </g>
</svg>